<svg xmlns="http://www.w3.org/2000/svg" viewBox="0 0 512 512" style="height: 512px; width: 512px;"><path d="M0 0h512v512H0z" fill="#ffffff" fill-opacity="0"></path><g class="" transform="translate(0,0)" style=""><g><path d="M372.155 22.74C369.772 22.746 367.375 22.763 364.967 22.788C268.352 23.794 152.518 39.131 71.838 71.087C125.472 101.604 219.083 141.007 297.096 134.71C402.984 120.941 427.309 71.514 463.368 32.82C382.825 68.222 274.433 101.115 186.024 80.108L190.184 62.595C264.178 80.176 359.275 55.468 435.371 24.876C415.927 23.401 394.635 22.672 372.155 22.739Z" class="" fill="#7ed321" fill-opacity="1"></path><path d="M488.202 33.509C448.91 69.075 423.182 136.554 299.178 152.597L298.969 152.624L298.756 152.642C237.47 157.649 170.726 137.761 117.371 114.302C27.258 195.335 -3.358 324.769 46.178 423.278C38.988 438.411 32.078 478.992 40.834 484.733C50.741 491.23 97.211 494.295 141.268 468.581C408.243 490.73 522.343 271.485 475.578 94.941C484.574 77.402 492.572 46.619 488.201 33.509Z" class="" fill="#f8e71c" fill-opacity="1"></path><path d="M440.106 239.159L457.819 242.366C455.108 257.336 454.334 261.307 445.84 278.308L429.737 270.263C438.032 253.658 437.361 254.318 440.106 239.159Z" class="" fill="#ffffff" fill-opacity="1"></path><path d="M404.58 240.425L421.828 245.571C417.862 258.861 417.154 260.753 406.218 278.509L390.891 269.069C401.809 251.344 400.574 253.851 404.581 240.425Z" class="" fill="#ffffff" fill-opacity="1"></path><path d="M422.309 293.847L438.866 300.909C429.878 321.979 417.736 338.069 399.178 353.889L387.502 340.19C404.511 325.691 414.269 312.696 422.309 293.847Z" class="" fill="#ffffff" fill-opacity="1"></path><path d="M376.205 294.95L391.602 304.274C388.979 308.604 383.56 315.659 377.145 323.796C370.73 331.932 363.852 340.309 359.157 345.276L346.077 332.911C349.783 328.991 356.77 320.566 363.008 312.653C369.247 304.74 375.268 296.497 376.205 294.95Z" class="" fill="#ffffff" fill-opacity="1"></path><path d="M333.137 345.35L345.776 358.165C335.881 367.924 325.682 373.433 310.401 382.169L301.467 366.542C316.88 357.731 325.24 353.139 333.137 345.351Z" class="" fill="#ffffff" fill-opacity="1"></path><path d="M368.723 362.958L380.215 376.812C370.63 384.762 357.775 394.181 342.873 401.952L334.549 385.992C347.912 379.022 359.862 370.308 368.723 362.958Z" class="" fill="#ffffff" fill-opacity="1"></path><path d="M280.493 377.983L286.183 395.06L268.305 401.02L262.614 383.942Z" class="selected" fill="#ffffff" fill-opacity="1"></path><path d="M238.719 392.312L244.028 409.511C227.923 414.482 222.012 417.171 201.463 417.361L201.297 399.361C220.545 399.183 221.937 397.491 238.719 392.311Z" class="" fill="#ffffff" fill-opacity="1"></path><path d="M308.569 399.978L316.211 416.274C300.608 423.592 279.855 431.728 259.971 435.584L256.545 417.914C274.018 414.525 293.923 406.847 308.569 399.978Z" class="" fill="#ffffff" fill-opacity="1"></path><path d="M216.889 428.995L221.659 446.353C209.771 449.62 199.659 448.494 185.702 448.101L186.209 430.108C200.739 430.518 208.648 431.26 216.889 428.995Z" class="" fill="#ffffff" fill-opacity="1"></path></g></g></svg>